<svg xmlns="http://www.w3.org/2000/svg" version="1.1" xmlns:xlink="http://www.w3.org/1999/xlink" xmlns:svgjs="http://svgjs.dev/svgjs" width="1500" height="935" viewBox="0 0 1500 935"><g transform="matrix(1,0,0,1,-0.9090909090909918,0.3785425101214628)"><svg viewBox="0 0 396 247" data-background-color="#ffffff" preserveAspectRatio="xMidYMid meet" height="935" width="1500" xmlns="http://www.w3.org/2000/svg" xmlns:xlink="http://www.w3.org/1999/xlink"><g id="tight-bounds" transform="matrix(1,0,0,1,0.2400000000000091,-0.09999999999999432)"><svg viewBox="0 0 395.52 247.2" height="247.2" width="395.52"><g><svg></svg></g><g><svg viewBox="0 0 395.52 247.2" height="247.2" width="395.52"><g transform="matrix(1,0,0,1,75.54432,93.85455794529327)"><svg viewBox="0 0 244.43135999999998 59.49088410941347" height="59.49088410941347" width="244.43135999999998"><g><svg viewBox="0 0 371.71208160349687 90.46908043527016" height="59.49088410941347" width="244.43135999999998"><g><rect width="5.903469636572845" height="78.55491788880187" x="105.92314297066004" y="5.957081273234145" fill="#3785c7" opacity="1" stroke-width="0" stroke="transparent" fill-opacity="1" class="rect-qz-0" data-fill-palette-color="primary" rx="1%" id="qz-0" data-palette-color="#3785c7"></rect></g><g transform="matrix(1,0,0,1,127.28072160349689,12.5033244306343)"><svg viewBox="0 0 244.43135999999998 65.46243157400156" height="65.46243157400156" width="244.43135999999998"><g id="textblocktransform"><svg viewBox="0 0 244.43135999999998 65.46243157400156" height="65.46243157400156" width="244.43135999999998" id="textblock"><g><svg viewBox="0 0 244.43135999999998 65.46243157400156" height="65.46243157400156" width="244.43135999999998"><g transform="matrix(1,0,0,1,0,0)"><svg width="244.43135999999998" viewBox="1.66 -41.19 155.87 41.75" height="65.46243157400156" data-palette-color="#3785c7"><path d="M27.71-9.01L27.71-9.01Q27.71-7.15 27.17-5.71 26.64-4.27 25.71-3.21 24.78-2.15 23.51-1.43 22.24-0.71 20.79-0.27 19.34 0.17 17.75 0.37 16.16 0.56 14.6 0.56L14.6 0.56Q12.5 0.56 10.89 0.29 9.28 0.02 7.81-0.57 6.35-1.17 4.9-2.12 3.44-3.08 1.66-4.44L1.66-4.44 6.47-8.37Q7.13-7.13 8.22-6.12 9.3-5.1 10.47-4.37 11.65-3.64 12.74-3.25 13.84-2.86 14.53-2.86L14.53-2.86Q15.09-2.86 15.8-2.89 16.5-2.93 17.24-3.04 17.97-3.15 18.68-3.37 19.38-3.59 19.93-3.97 20.48-4.35 20.81-4.92 21.14-5.49 21.14-6.3L21.14-6.3Q21.14-7.13 20.72-7.75 20.29-8.37 19.6-8.84 18.92-9.3 18.04-9.62 17.16-9.94 16.27-10.18 15.38-10.42 14.55-10.61 13.72-10.79 13.11-10.96L13.11-10.96Q11.99-11.28 10.74-11.61 9.5-11.94 8.28-12.37 7.06-12.79 5.94-13.38 4.83-13.96 3.99-14.78 3.15-15.6 2.65-16.71 2.15-17.82 2.15-19.31L2.15-19.31Q2.15-22.05 3.23-23.89 4.32-25.73 6.1-26.84 7.89-27.95 10.16-28.42 12.43-28.88 14.77-28.88L14.77-28.88Q16.38-28.88 18.16-28.55 19.95-28.22 21.63-27.58 23.32-26.93 24.78-26 26.25-25.07 27.22-23.88L27.22-23.88 22.41-19.92Q21.88-21.39 21.01-22.44 20.14-23.49 19.13-24.16 18.12-24.83 17.05-25.15 15.99-25.46 15.09-25.46L15.09-25.46Q14.21-25.46 13.11-25.39 12.01-25.32 11.05-24.98 10.08-24.63 9.41-23.94 8.74-23.24 8.74-22.02L8.74-22.02Q8.74-21.14 9.14-20.52 9.55-19.9 10.21-19.45 10.86-18.99 11.71-18.69 12.55-18.38 13.43-18.15 14.31-17.92 15.14-17.75 15.97-17.58 16.63-17.38L16.63-17.38Q17.75-17.07 19.01-16.74 20.26-16.41 21.48-15.98 22.71-15.55 23.84-14.98 24.98-14.4 25.83-13.57 26.68-12.74 27.2-11.63 27.71-10.52 27.71-9.01ZM62.69-14.16L62.69-14.16Q62.69-11.96 62.11-10.03 61.52-8.11 60.48-6.47 59.45-4.83 57.98-3.53 56.52-2.22 54.77-1.32 53.02-0.42 51.04 0.07 49.05 0.56 46.95 0.56L46.95 0.56Q44.85 0.56 42.87 0.07 40.89-0.42 39.15-1.32 37.4-2.22 35.94-3.53 34.47-4.83 33.43-6.47 32.39-8.11 31.81-10.05 31.22-11.99 31.22-14.16L31.22-14.16Q31.22-16.33 31.81-18.27 32.39-20.21 33.43-21.85 34.47-23.49 35.94-24.79 37.4-26.1 39.15-27 40.89-27.91 42.87-28.39 44.85-28.88 46.95-28.88L46.95-28.88Q49.05-28.88 51.04-28.39 53.02-27.91 54.77-27 56.52-26.1 57.98-24.79 59.45-23.49 60.48-21.85 61.52-20.21 62.11-18.27 62.69-16.33 62.69-14.16ZM54.29-14.16L54.29-14.16Q54.29-15.33 54.16-16.64 54.03-17.94 53.71-19.2 53.39-20.46 52.84-21.62 52.29-22.78 51.49-23.65 50.68-24.51 49.56-25.04 48.44-25.56 46.95-25.56L46.95-25.56Q45.53-25.56 44.43-25.02 43.33-24.49 42.51-23.6 41.7-22.71 41.15-21.53 40.6-20.36 40.26-19.1 39.91-17.85 39.77-16.56 39.62-15.28 39.62-14.16L39.62-14.16Q39.62-13.04 39.77-11.76 39.91-10.47 40.26-9.2 40.6-7.93 41.15-6.77 41.7-5.62 42.51-4.72 43.33-3.83 44.43-3.3 45.53-2.76 46.95-2.76L46.95-2.76Q48.41-2.76 49.53-3.28 50.66-3.81 51.47-4.69 52.29-5.57 52.83-6.71 53.37-7.86 53.7-9.13 54.03-10.4 54.16-11.69 54.29-12.99 54.29-14.16ZM93.92-21.22L93.92-21.22 90.35-19.8Q89.5-22.49 87.5-23.93 85.49-25.37 82.69-25.37L82.69-25.37Q81.17-25.37 79.99-24.89 78.8-24.41 77.91-23.58 77.02-22.75 76.4-21.66 75.78-20.56 75.39-19.31 75-18.07 74.82-16.74 74.65-15.41 74.65-14.16L74.65-14.16Q74.65-12.82 74.8-11.45 74.95-10.08 75.3-8.83 75.65-7.57 76.24-6.48 76.83-5.4 77.72-4.59 78.61-3.78 79.84-3.32 81.07-2.86 82.69-2.86L82.69-2.86Q83.98-2.86 85.15-3.25 86.32-3.64 87.3-4.35 88.28-5.05 89.03-6.03 89.79-7.01 90.23-8.2L90.23-8.2 93.82-6.88Q93.01-4.96 91.68-3.55 90.35-2.15 88.67-1.23 86.98-0.32 85.05 0.12 83.12 0.56 81.15 0.56L81.15 0.56Q77.95 0.56 75.21-0.52 72.48-1.61 70.49-3.58 68.5-5.54 67.38-8.24 66.25-10.94 66.25-14.16L66.25-14.16Q66.25-17.41 67.37-20.12 68.48-22.83 70.45-24.78 72.43-26.73 75.17-27.81 77.9-28.88 81.15-28.88L81.15-28.88Q83.2-28.88 85.15-28.43 87.1-27.98 88.78-27.04 90.45-26.1 91.78-24.66 93.11-23.22 93.92-21.22ZM107.46-35.01L107.46-35.01Q107.46-34.08 107.11-33.25 106.76-32.42 106.14-31.81 105.53-31.2 104.7-30.85 103.87-30.49 102.95-30.49L102.95-30.49Q102.02-30.49 101.2-30.85 100.38-31.2 99.77-31.81 99.16-32.42 98.81-33.25 98.45-34.08 98.45-35.01L98.45-35.01Q98.45-35.94 98.81-36.76 99.16-37.57 99.77-38.18 100.38-38.79 101.2-39.15 102.02-39.5 102.95-39.5L102.95-39.5Q103.87-39.5 104.7-39.15 105.53-38.79 106.14-38.18 106.76-37.57 107.11-36.76 107.46-35.94 107.46-35.01ZM107.1-28.17L107.1 0 98.82 0 98.82-28.17 107.1-28.17ZM142.4-28.2L142.4 0 134.15 0 134.15-3.37Q132.68-1.37 130.62-0.4 128.55 0.56 126.09 0.56L126.09 0.56Q122.87 0.56 120.33-0.59 117.79-1.73 116.03-3.72 114.27-5.71 113.34-8.4 112.42-11.08 112.42-14.16L112.42-14.16Q112.42-17.24 113.34-19.92 114.27-22.61 116.03-24.6 117.79-26.59 120.33-27.73 122.87-28.88 126.09-28.88L126.09-28.88Q127.72-28.88 129.2-28.39 130.68-27.91 131.91-27.01 133.14-26.12 134.08-24.87 135.02-23.61 135.56-22.07L135.56-22.07 139.22-28.2 142.4-28.2ZM134.1-14.16L134.1-14.16Q134.1-15.26 133.99-16.48 133.88-17.7 133.61-18.9 133.34-20.09 132.86-21.18 132.39-22.27 131.64-23.11 130.9-23.95 129.85-24.44 128.8-24.93 127.41-24.93L127.41-24.93Q126.02-24.93 124.99-24.43 123.96-23.93 123.23-23.08 122.5-22.24 122.02-21.14 121.55-20.04 121.28-18.85 121.01-17.65 120.9-16.44 120.79-15.23 120.79-14.16L120.79-14.16Q120.79-13.09 120.9-11.87 121.01-10.64 121.28-9.45 121.55-8.25 122.02-7.15 122.5-6.05 123.23-5.21 123.96-4.37 124.99-3.87 126.02-3.37 127.41-3.37L127.41-3.37Q128.68-3.37 129.67-3.89 130.65-4.42 131.4-5.3 132.14-6.18 132.66-7.3 133.17-8.42 133.49-9.62 133.8-10.82 133.95-12 134.1-13.18 134.1-14.16ZM157.53-32.62L157.53 0 149.28 0 149.28-41.19 152.45-41.19 157.53-32.62Z" opacity="1" transform="matrix(1,0,0,1,0,0)" fill="#3785c7" class="wordmark-text-0" data-fill-palette-color="primary" id="text-0"></path></svg></g></svg></g></svg></g></svg></g><g><svg viewBox="0 0 90.46903397439604 90.46908043527016" height="90.46908043527016" width="90.46903397439604"><g><svg xmlns="http://www.w3.org/2000/svg" xmlns:xlink="http://www.w3.org/1999/xlink" version="1.1" x="0" y="0" viewBox="4.999802624769675 4.9994999999999985 90.00069737523032 90.00074359558756" enable-background="new 0 0 100 100" xml:space="preserve" height="90.46908043527016" width="90.46903397439604" class="icon-icon-0" data-fill-palette-color="accent" id="icon-0"><g fill="#3785c7" data-fill-palette-color="accent"><path d="M5.316 94.538l3.806-25.693C1.46 52.219 4.479 31.881 18.18 18.18c17.574-17.574 46.066-17.574 63.64 0s17.574 46.066 0 63.64c-13.884 13.884-34.583 16.799-51.328 8.745L5.316 94.538zM23.799 49.684c0 3.189 2.585 5.774 5.774 5.774s5.774-2.585 5.774-5.774c0-3.189-2.585-5.774-5.774-5.774S23.799 46.495 23.799 49.684zM44.361 49.684c0 3.189 2.585 5.774 5.774 5.774 3.189 0 5.774-2.585 5.774-5.774 0-3.189-2.585-5.774-5.774-5.774C46.946 43.91 44.361 46.495 44.361 49.684zM64.923 49.684c0 3.189 2.585 5.774 5.774 5.774s5.774-2.585 5.774-5.774c0-3.189-2.585-5.774-5.774-5.774S64.923 46.495 64.923 49.684z" fill="#3785c7" data-fill-palette-color="accent"></path></g></svg></g></svg></g></svg></g></svg></g><g><path d="M0 123.6c0-68.262 55.338-123.6 123.6-123.6 56.169 0 103.588 37.468 118.626 88.773l-2.025 0c-14.978-50.219-61.514-86.832-116.601-86.832-67.19 0-121.659 54.469-121.659 121.659 0 67.19 54.469 121.659 121.659 121.659 55.087 0 101.623-36.613 116.601-86.832h2.025c-15.038 51.306-62.456 88.773-118.626 88.773-68.262 0-123.6-55.338-123.6-123.6z" fill="#2a2c35" stroke="transparent" data-fill-palette-color="tertiary"></path></g></svg></g><defs></defs></svg><rect width="395.52" height="247.2" fill="none" stroke="none" visibility="hidden"></rect></g></svg></g></svg>